<svg xmlns:mydata="http://www.w3.org/2000/svg" mydata:contrastcolor="ffffff" mydata:template="Contrast" mydata:presentation="2.5" mydata:layouttype="undefined" mydata:specialfontid="undefined" mydata:id1="347" mydata:id2="139" mydata:companyname="ycs" mydata:companytagline="" version="1.1" xmlns="http://www.w3.org/2000/svg" xmlns:xlink="http://www.w3.org/1999/xlink" viewBox="0 0 550 470"><defs><linearGradient x1="93.71779" y1="234.99943" x2="456.28221" y2="234.99943" gradientUnits="userSpaceOnUse" id="color-1402433957"><stop offset="0" stop-color="#ac8400"></stop><stop offset="1" stop-color="#fdee79"></stop></linearGradient></defs><g fill="url(#color-1402433957)"  stroke="none" stroke-width="1" stroke-linecap="butt" stroke-linejoin="miter" stroke-miterlimit="10" stroke-dasharray="" stroke-dashoffset="0" font-family="none" font-weight="none" font-size="none" text-anchor="none" style="mix-blend-mode: normal"><g data-paper-data="{&quot;isGlobalGroup&quot;:true,&quot;bounds&quot;:{&quot;x&quot;:93.71779123377205,&quot;y&quot;:157.75858748219858,&quot;width&quot;:362.5644175324558,&quot;height&quot;:154.48168399405776}}"><g data-paper-data="{&quot;isPrimaryText&quot;:true}" fill-rule="nonzero" id="element-id-93531"><path d="M277.45406,294.89875c-5.59441,6.88048 -12.86071,10.32072 -21.7989,10.32072c-8.23085,0 -15.27209,-2.92581 -21.12371,-8.77743c-5.85162,-5.85162 -8.77743,-12.89286 -8.77743,-21.12371v-12.44274h17.84423v12.44274c0,3.27948 1.18962,6.10884 3.56885,8.48807c2.37923,2.37923 5.20859,3.56885 8.48807,3.56885c3.72961,0 6.65542,-1.57544 8.77743,-4.72631c2.25062,-3.40809 3.37594,-8.1987 3.37594,-14.37184v-28.45432c-2.70075,1.54328 -6.75187,2.31493 -12.15337,2.31493c-8.23085,0 -15.27209,-2.92581 -21.12371,-8.77743c-5.85162,-5.85162 -8.77743,-12.89286 -8.77743,-21.12371v-47.45601h17.84423v47.45601c0,3.34378 1.18962,6.20529 3.56885,8.58452c2.37923,2.31493 5.20859,3.47239 8.48807,3.47239c3.34378,0 6.20529,-1.15746 8.58452,-3.47239c2.37923,-2.37923 3.56885,-5.24074 3.56885,-8.58452v-47.45601h17.84423v103.49655c0,11.06021 -2.7329,19.9341 -8.1987,26.62167z" data-paper-data="{&quot;glyphName&quot;:&quot;Y&quot;,&quot;glyphIndex&quot;:0,&quot;firstGlyphOfWord&quot;:true,&quot;word&quot;:1}" id="element-id-83803"></path><path d="M295.2983,235c0,-19.35537 6.84833,-35.91353 20.54498,-49.67448c13.76096,-13.69665 30.96215,-20.54498 51.60359,-20.54498v17.84423c-15.69006,0 -28.67938,5.11213 -38.96795,15.33639c-10.22426,10.28857 -15.33639,22.63485 -15.33639,37.03884c0,14.40399 5.11213,26.75027 15.33639,37.03884c10.28857,10.22426 23.27788,15.33639 38.96795,15.33639v17.84423c-20.64144,0 -37.84263,-6.84833 -51.60359,-20.54498c-13.69665,-13.76096 -20.54498,-30.31912 -20.54498,-49.67448z" data-paper-data="{&quot;glyphName&quot;:&quot;C&quot;,&quot;glyphIndex&quot;:1,&quot;word&quot;:1}" id="element-id-74157"></path><path d="M416.63908,182.62477c-5.98023,0 -11.09236,2.12202 -15.33639,6.36605c-4.24403,4.24403 -6.36605,9.35617 -6.36605,15.33639c0,5.98023 2.12202,11.09236 6.36605,15.33639c4.24403,4.24403 9.35617,6.36605 15.33639,6.36605c10.9316,0 20.25562,3.89036 27.97204,11.67109c7.78073,7.71642 11.67109,17.04044 11.67109,27.97204c0,10.8673 -3.89036,20.19131 -11.67109,27.97204c-7.71642,7.71642 -17.04044,11.57464 -27.97204,11.57464c-10.8673,0 -20.19131,-3.85821 -27.97204,-11.57464c-7.71642,-7.78073 -11.57464,-17.74778 -11.57464,-29.90115h17.84423c0,7.2663 2.12202,13.02147 6.36605,17.2655c4.24403,4.24403 9.35617,6.36605 15.33639,6.36605c5.98023,0 11.09236,-2.12202 15.33639,-6.36605c4.24403,-4.24403 6.36605,-9.35617 6.36605,-15.33639c0,-5.98023 -2.12202,-11.09236 -6.36605,-15.33639c-4.24403,-4.24403 -9.35617,-6.36605 -15.33639,-6.36605c-10.8673,0 -20.19131,-3.89036 -27.97204,-11.67109c-7.71642,-7.71642 -11.57464,-17.04044 -11.57464,-27.97204c0,-10.8673 3.85821,-20.19131 11.57464,-27.97204c7.78073,-7.71642 17.10474,-11.57464 27.97204,-11.57464c10.9316,0 20.25562,3.85821 27.97204,11.57464c7.78073,7.78073 11.67109,17.74778 11.67109,29.90115h-17.94069c0,-7.2663 -2.12202,-13.02147 -6.36605,-17.2655c-4.24403,-4.24403 -9.35617,-6.36605 -15.33639,-6.36605z" data-paper-data="{&quot;glyphName&quot;:&quot;S&quot;,&quot;glyphIndex&quot;:2,&quot;lastGlyphOfWord&quot;:true,&quot;word&quot;:1}" id="element-id-60187"></path></g><g data-paper-data="{&quot;fillRule&quot;:&quot;evenodd&quot;,&quot;fillRuleOriginal&quot;:&quot;evenodd&quot;,&quot;isIcon&quot;:true,&quot;iconStyle&quot;:&quot;standalone&quot;,&quot;selectedEffects&quot;:{&quot;container&quot;:&quot;&quot;,&quot;transformation&quot;:&quot;rotate0;translate50&quot;,&quot;pattern&quot;:&quot;&quot;},&quot;bounds&quot;:{&quot;x&quot;:93.71779123377205,&quot;y&quot;:157.75858748219858,&quot;width&quot;:106.42198230442649,&quot;height&quot;:154.48168399405776},&quot;iconType&quot;:&quot;icon&quot;,&quot;rawIconId&quot;:&quot;154158&quot;,&quot;combineTerms&quot;:&quot;p&quot;,&quot;suitableAsStandaloneIcon&quot;:true}" fill-rule="evenodd" id="element-id-62910"><g data-paper-data="{&quot;isPathIcon&quot;:true}" id="element-id-60449"><path d="M93.79979,169.22856c0.4345,-6.38999 5.71719,-11.46998 12.21618,-11.46998c6.77999,0 12.29797,5.51699 12.29797,12.29797c0,2.265 -1.837,4.09899 -4.09899,4.09899c-2.263,0 -4.09999,-1.834 -4.09999,-4.09899c0,-2.26 -1.839,-4.09999 -4.09899,-4.09999c-2.26,0 -4.09999,1.84 -4.09999,4.09999v129.88573c0,2.26 1.84,4.09999 4.09999,4.09999c2.26,0 4.09899,-1.84 4.09899,-4.09999c0,-2.265 1.837,-4.09899 4.09999,-4.09899c2.262,0 4.09899,1.834 4.09899,4.09899c0,6.78099 -5.51799,12.29797 -12.29797,12.29797c-6.49899,0 -11.78168,-5.07999 -12.21618,-11.46998c-0.0519,-0.267 -0.082,-0.543 -0.082,-0.828v-129.88573c0,-0.285 0.0273,-0.561 0.082,-0.828z" id="element-id-73028"></path><path d="M155.04687,157.75859c24.86395,0 45.09291,20.22896 45.09291,45.09191v7.55998c0,24.86395 -20.22896,45.09291 -45.09291,45.09291c-2.263,0 -4.09899,-1.834 -4.09899,-4.09999c0,-2.265 1.836,-4.09899 4.09899,-4.09899c20.34396,0 36.89392,-16.55097 36.89392,-36.89392v-7.55998c0,-20.34296 -16.54997,-36.89392 -36.89392,-36.89392h-16.20097c-2.26,0 -4.09899,1.84 -4.09899,4.09999c0,2.26 1.839,4.09899 4.09899,4.09899c2.263,0 4.09999,1.834 4.09999,4.09899c0,2.266 -1.837,4.09999 -4.09999,4.09999c-6.77999,0 -12.29797,-5.51799 -12.29797,-12.29797c0,-6.78099 5.51799,-12.29797 12.29797,-12.29797z" id="element-id-25974"></path><path d="M134.74691,243.20541c0,2.26 1.839,4.09899 4.09899,4.09899c2.263,0 4.09999,1.834 4.09999,4.09899c0,2.266 -1.837,4.09999 -4.09999,4.09999c-6.77999,0 -12.29797,-5.51799 -12.29797,-12.29797c0,-6.78099 5.51799,-12.29897 12.29797,-12.29897h16.20097c11.30298,0 20.49696,-9.19298 20.49696,-20.49596v-7.55898c0,-11.30398 -9.19398,-20.49696 -20.49696,-20.49696c-2.263,0 -4.09899,-1.834 -4.09899,-4.09999c0,-2.265 1.836,-4.09899 4.09899,-4.09899c15.82297,0 28.69494,12.87197 28.69494,28.69594v7.55898c0,15.82297 -12.87197,28.69494 -28.69494,28.69494h-16.20097c-2.26,0 -4.09899,1.839 -4.09899,4.09999z" id="element-id-96420"></path><path d="M114.21495,182.35454c-2.263,0 -4.09999,1.834 -4.09999,4.09899v97.0918c0,2.266 1.837,4.09899 4.09999,4.09899c2.262,0 4.09899,-1.833 4.09899,-4.09899v-97.0918c0,-2.263 -1.837,-4.09899 -4.09899,-4.09899z" id="element-id-73508"></path></g></g></g></g><g class="watermark-group" style="opacity:0.040000010281801224"><path class="watermark-path" d="M129.52,370.3a11.88,11.88,0,0,1,2.58,5.58,12,12,0,0,1,.11,3,11.81,11.81,0,0,1-.64,2.93,12.34,12.34,0,0,1-1.41,2.72,11.65,11.65,0,0,1-2.13,2.32,12,12,0,0,1-2.64,1.69,13,13,0,0,1-2.91.9,12.47,12.47,0,0,1-3,.12,12.17,12.17,0,0,1-2.93-.64,11.8,11.8,0,0,1-2.72-1.38,12.19,12.19,0,0,1-4-4.79,11.85,11.85,0,0,1-.89-2.92,12.14,12.14,0,0,1-.13-3,11.54,11.54,0,0,1,.64-2.92,11.67,11.67,0,0,1,3.5-5,11.44,11.44,0,0,1,2.67-1.69,11.64,11.64,0,0,1,2.92-.91,10.71,10.71,0,0,1,3-.12,11.68,11.68,0,0,1,5.66,2,11.7,11.7,0,0,1,2.34,2.12m-1.4,8.76a13,13,0,0,1-1.22,2.32,9.68,9.68,0,0,1-1.81,2,7.44,7.44,0,0,1-2.38,1.37,6.17,6.17,0,0,1-5.11-.46,8.73,8.73,0,0,1-3.85-4.58,6.69,6.69,0,0,1-.34-2.66,6.09,6.09,0,0,1,.77-2.47,7.15,7.15,0,0,1,1.75-2.11,9.58,9.58,0,0,1,1.09-.81,8.23,8.23,0,0,1,1.12-.63,8.14,8.14,0,0,1,1.19-.46,12.71,12.71,0,0,1,1.32-.37l2,2.38a12.83,12.83,0,0,0-1.56.17,7.86,7.86,0,0,0-1.23.32,4.5,4.5,0,0,0-1,.49,6.41,6.41,0,0,0-.93.67,4.49,4.49,0,0,0-1.15,1.39,3.87,3.87,0,0,0-.45,1.58,4.12,4.12,0,0,0,.26,1.63,6.11,6.11,0,0,0,2.36,2.82,4.43,4.43,0,0,0,1.57.53,3.91,3.91,0,0,0,1.62-.17,4.71,4.71,0,0,0,1.57-.89,10.5,10.5,0,0,0,.83-.79,5.71,5.71,0,0,0,.65-.93,10.13,10.13,0,0,0,.54-1.14,12.24,12.24,0,0,0,.44-1.49l2,2.33m-14.46,4.55a8.86,8.86,0,0,0,2.78,2.22,9,9,0,0,0,3.29.94,9.15,9.15,0,0,0,3.39-.37,8.68,8.68,0,0,0,3.11-1.69,8.8,8.8,0,0,0,2.22-2.78,9.15,9.15,0,0,0,1-3.29,8.95,8.95,0,0,0-4.83-8.76,9,9,0,0,0-6.73-.57,9,9,0,0,0-5.33,4.47,8.94,8.94,0,0,0-.57,6.71,8.76,8.76,0,0,0,1.7,3.12"></path><path class="watermark-path" d="M147,349c-.48.12-1.09.31-1.82.57a24.37,24.37,0,0,0-2.4,1A28.35,28.35,0,0,0,140,352a20.72,20.72,0,0,0-2.71,1.94c-.7.59-1.28,1.11-1.74,1.57a15.07,15.07,0,0,0-1.1,1.22,4.09,4.09,0,0,0-.59.92,2.32,2.32,0,0,0-.22.64,1.16,1.16,0,0,0,0,.47,1.83,1.83,0,0,0,.18.29,1.15,1.15,0,0,0,1,.37,5.54,5.54,0,0,0,1.51-.38q.87-.35,1.95-.9l2.26-1.18q1.2-.65,2.49-1.29c.87-.44,1.73-.83,2.59-1.17a18.94,18.94,0,0,1,2.6-.81,9.27,9.27,0,0,1,2.46-.29,6.25,6.25,0,0,1,2.24.49,5.12,5.12,0,0,1,1.89,1.47,6.35,6.35,0,0,1,1.41,2.61,6,6,0,0,1,.09,2.6,8.3,8.3,0,0,1-.9,2.52,17.79,17.79,0,0,1-1.62,2.37,23.92,23.92,0,0,1-2,2.15c-.72.67-1.41,1.29-2.09,1.87a33.79,33.79,0,0,1-5.33,3.7,32.29,32.29,0,0,1-4.91,2.28l-3.61-4.3a21.38,21.38,0,0,0,5.39-1.87,27.2,27.2,0,0,0,5.4-3.56,21.59,21.59,0,0,0,2.38-2.27,8.67,8.67,0,0,0,1.18-1.7,2.32,2.32,0,0,0,.27-1.19,1.34,1.34,0,0,0-.28-.74,1.21,1.21,0,0,0-1-.42,4.32,4.32,0,0,0-1.55.34,15.77,15.77,0,0,0-2,.88c-.72.37-1.48.77-2.27,1.21l-2.45,1.3c-.85.45-1.7.85-2.56,1.21a22.37,22.37,0,0,1-2.54.86,10,10,0,0,1-2.43.32,5.76,5.76,0,0,1-2.2-.45,5,5,0,0,1-1.89-1.45,6.12,6.12,0,0,1-1.31-2.41,6,6,0,0,1-.1-2.41,8.28,8.28,0,0,1,.81-2.38,14.06,14.06,0,0,1,1.49-2.24,22.37,22.37,0,0,1,1.85-2.05q1-1,2-1.77c.7-.59,1.44-1.15,2.23-1.7s1.62-1.06,2.44-1.53,1.63-.91,2.43-1.3,1.58-.75,2.3-1L147,349"></path><path class="watermark-path" d="M186.76,337.57l-10.6-12.63,3.92,18.24-4.66,3.91-17.27-7,10.6,12.63-4.86,4.07-15.09-18,6.59-5.54,18.69,7.52-4.15-19.71,6.57-5.52,15.09,18-4.83,4.05"></path><path class="watermark-path" d="M208.84,313.24l-10,8.42,1.16,4.82L194.56,331l-5.68-25.89,5.42-4.55,24.51,10.09-5.42,4.55-4.55-2m-11.23,3.45,6.57-5.52-8.83-3.87,2.26,9.39"></path><path class="watermark-path" d="M227.49,281.38c-.48.12-1.09.31-1.82.57a24.37,24.37,0,0,0-2.4,1,26.11,26.11,0,0,0-2.7,1.47,20.72,20.72,0,0,0-2.71,1.94c-.7.59-1.28,1.11-1.74,1.57a13.39,13.39,0,0,0-1.1,1.22,4.29,4.29,0,0,0-.59.91,2.48,2.48,0,0,0-.22.65,1.16,1.16,0,0,0,0,.47,1.83,1.83,0,0,0,.18.29,1.15,1.15,0,0,0,1,.37,5.54,5.54,0,0,0,1.51-.38q.87-.34,2-.9l2.26-1.18q1.2-.64,2.49-1.29c.87-.44,1.73-.83,2.59-1.17a18.94,18.94,0,0,1,2.6-.81,9.27,9.27,0,0,1,2.46-.29,6.08,6.08,0,0,1,2.24.49,5.09,5.09,0,0,1,1.89,1.46,6.47,6.47,0,0,1,1.41,2.61,6.07,6.07,0,0,1,.09,2.61,8.3,8.3,0,0,1-.9,2.52,16.32,16.32,0,0,1-1.63,2.36,21.41,21.41,0,0,1-2,2.16c-.72.67-1.41,1.29-2.1,1.86a33.36,33.36,0,0,1-5.32,3.71,31.92,31.92,0,0,1-4.92,2.28l-3.6-4.3a21.38,21.38,0,0,0,5.39-1.87,27.2,27.2,0,0,0,5.4-3.56,21.59,21.59,0,0,0,2.38-2.27,8.67,8.67,0,0,0,1.18-1.7A2.32,2.32,0,0,0,231,293a1.34,1.34,0,0,0-.28-.74,1.21,1.21,0,0,0-1-.42,4.32,4.32,0,0,0-1.55.34,16.54,16.54,0,0,0-2,.88c-.71.37-1.47.77-2.26,1.21l-2.46,1.3c-.84.44-1.7.85-2.55,1.21a24.53,24.53,0,0,1-2.54.86A10,10,0,0,1,214,298a5.76,5.76,0,0,1-2.2-.45,5,5,0,0,1-1.89-1.45,6.12,6.12,0,0,1-1.31-2.41,5.78,5.78,0,0,1-.1-2.41,8,8,0,0,1,.81-2.38,14.61,14.61,0,0,1,1.49-2.25,22.26,22.26,0,0,1,1.85-2q1-1,2-1.77c.7-.59,1.44-1.15,2.23-1.7s1.62-1.06,2.44-1.53,1.63-.91,2.43-1.31,1.58-.74,2.3-1l3.5,4.16"></path><path class="watermark-path" d="M261.64,274.74l-6.29-7.5L243,277.61l6.3,7.5-4.86,4.07-15.09-18,4.85-4.08,5.49,6.55L252,263.3l-5.49-6.55,4.86-4.07,15.09,18-4.86,4.08"></path><path class="watermark-path" d="M272.18,265.9l-15.09-18,4.86-4.08,15.09,18-4.86,4.08"></path><path class="watermark-path" d="M299.65,242.85l-22.51-2.18L287.51,253l-4.85,4.08-15.1-18,5.28-4.43,22.56,2.22L285,224.5l4.83-4.06,15.09,18-5.26,4.42"></path><path class="watermark-path" d="M306.68,205.52a31.88,31.88,0,0,1,5.29-3.66,34.48,34.48,0,0,1,5.14-2.35l3.69,4.39a20.77,20.77,0,0,0-2.37.61,20.47,20.47,0,0,0-2.61,1,25.12,25.12,0,0,0-2.76,1.49,23.9,23.9,0,0,0-2.8,2,20.42,20.42,0,0,0-2.8,2.77,12.77,12.77,0,0,0-1.64,2.52,7,7,0,0,0-.68,2.24,6,6,0,0,0,.66,3.64,8.16,8.16,0,0,0,.94,1.38,9.12,9.12,0,0,0,1.08,1.07,6.39,6.39,0,0,0,1.47.91,6.73,6.73,0,0,0,1.88.48,6.54,6.54,0,0,0,2.28-.18,11.67,11.67,0,0,0,2.74-1.07,19.38,19.38,0,0,0,3.18-2.22c.57-.48,1.06-.92,1.46-1.31a14.57,14.57,0,0,0,1-1.13,11.46,11.46,0,0,0,.81-1.05l.74-1.09-1.82-2.17-5.45,4.57-3.31-3.94,10.31-8.65,7.71,9.19a29,29,0,0,1-1.67,2.43q-1,1.26-2.1,2.52c-.74.84-1.5,1.65-2.3,2.44s-1.58,1.5-2.33,2.14a31,31,0,0,1-3.59,2.61,22.55,22.55,0,0,1-3.64,1.83,15.64,15.64,0,0,1-3.63.89,10.72,10.72,0,0,1-3.49-.15,10.45,10.45,0,0,1-3.28-1.33,12.54,12.54,0,0,1-3-2.67,12,12,0,0,1-2.08-3.44,10.45,10.45,0,0,1-.71-3.5,11.14,11.14,0,0,1,.51-3.51,15.72,15.72,0,0,1,1.56-3.43,21.62,21.62,0,0,1,2.42-3.28,30.3,30.3,0,0,1,3.15-3"></path><path class="watermark-path" d="M336.91,211.59l-15.1-18,4.86-4.08,11.79,14,13.13-11,3.31,3.94-18,15.1"></path><path class="watermark-path" d="M374.54,164.71a12.28,12.28,0,0,1,2.59,4.81,10.44,10.44,0,0,1,0,5,14.62,14.62,0,0,1-2.33,5,25.55,25.55,0,0,1-4.56,4.85,26.07,26.07,0,0,1-5.6,3.67,14.79,14.79,0,0,1-5.38,1.43,10.43,10.43,0,0,1-4.94-.89,13.24,13.24,0,0,1-6.87-8.18,10.48,10.48,0,0,1,0-5,14.51,14.51,0,0,1,2.36-5,25.23,25.23,0,0,1,4.57-4.89,25,25,0,0,1,5.59-3.64,14.45,14.45,0,0,1,5.35-1.43,10.31,10.31,0,0,1,4.93.92,12.22,12.22,0,0,1,4.28,3.38m-4.91,4.11a8.36,8.36,0,0,0-2-1.72,5.5,5.5,0,0,0-2.65-.85,7.72,7.72,0,0,0-3.32.57,14.49,14.49,0,0,0-4,2.52,16.72,16.72,0,0,0-2.38,2.4,10.15,10.15,0,0,0-1.39,2.24,6.71,6.71,0,0,0-.56,2.1,5.69,5.69,0,0,0,.1,1.9,6.21,6.21,0,0,0,.61,1.69,9.85,9.85,0,0,0,1,1.44,10.48,10.48,0,0,0,1.26,1.23,6.67,6.67,0,0,0,1.57.92,6.1,6.1,0,0,0,1.85.41,6.8,6.8,0,0,0,2.15-.2,11.06,11.06,0,0,0,2.45-1,17.67,17.67,0,0,0,2.77-1.94,14.39,14.39,0,0,0,3.18-3.52,7.74,7.74,0,0,0,1.14-3.17,5.54,5.54,0,0,0-.37-2.74,8.52,8.52,0,0,0-1.36-2.3"></path><path class="watermark-path" d="M382.66,141.76A32.3,32.3,0,0,1,388,138.1a34.12,34.12,0,0,1,5.15-2.35l3.69,4.4a19.62,19.62,0,0,0-2.37.6,22.08,22.08,0,0,0-2.61,1,26,26,0,0,0-2.77,1.49,23.9,23.9,0,0,0-2.8,2,21,21,0,0,0-2.8,2.78,13.19,13.19,0,0,0-1.64,2.51,7.29,7.29,0,0,0-.68,2.24,6.36,6.36,0,0,0,.06,2,5.8,5.8,0,0,0,.61,1.68,8.12,8.12,0,0,0,.93,1.38,9.16,9.16,0,0,0,1.08,1.08,6.56,6.56,0,0,0,1.48.9,6,6,0,0,0,1.87.48,6.76,6.76,0,0,0,2.28-.17,12,12,0,0,0,2.74-1.08,18.57,18.57,0,0,0,3.18-2.22c.58-.48,1.06-.92,1.46-1.31s.75-.77,1.05-1.12.57-.72.81-1.06l.73-1.09-1.82-2.17-5.45,4.57-3.3-3.94,10.3-8.65,7.71,9.19a29,29,0,0,1-1.67,2.43q-1,1.26-2.1,2.52c-.73.84-1.5,1.66-2.3,2.44s-1.57,1.5-2.33,2.14a31,31,0,0,1-3.59,2.61,22.15,22.15,0,0,1-3.64,1.83,15.56,15.56,0,0,1-3.62.89,11,11,0,0,1-3.49-.14,10.84,10.84,0,0,1-3.28-1.33,12.82,12.82,0,0,1-3-2.68,12.12,12.12,0,0,1-2.08-3.43A10.71,10.71,0,0,1,375,155a11.18,11.18,0,0,1,.51-3.51,15.51,15.51,0,0,1,1.57-3.43,21.44,21.44,0,0,1,2.42-3.28,30.19,30.19,0,0,1,3.14-3"></path><path class="watermark-path" d="M428.63,119.31a12.26,12.26,0,0,1,2.59,4.82,10.44,10.44,0,0,1,0,5,14.53,14.53,0,0,1-2.34,5,25.29,25.29,0,0,1-4.56,4.86,26,26,0,0,1-5.59,3.67,14.84,14.84,0,0,1-5.38,1.43,10.61,10.61,0,0,1-4.95-.89,12.15,12.15,0,0,1-4.3-3.37,12,12,0,0,1-2.56-4.81,10.48,10.48,0,0,1,0-5,14.39,14.39,0,0,1,2.35-5,27.89,27.89,0,0,1,10.16-8.53,14.49,14.49,0,0,1,5.36-1.43,10.27,10.27,0,0,1,4.92.92,12.21,12.21,0,0,1,4.28,3.37m-4.91,4.12a8.17,8.17,0,0,0-2-1.72,5.58,5.58,0,0,0-2.65-.86,7.86,7.86,0,0,0-3.31.58,14.49,14.49,0,0,0-4,2.52,16.21,16.21,0,0,0-2.38,2.4,9.85,9.85,0,0,0-1.4,2.24,7,7,0,0,0-.56,2.1,6,6,0,0,0,.1,1.9,6.23,6.23,0,0,0,.62,1.69,8.49,8.49,0,0,0,1,1.44,9.18,9.18,0,0,0,1.26,1.23,6.67,6.67,0,0,0,1.57.92,6,6,0,0,0,1.84.41,6.86,6.86,0,0,0,2.16-.2,11.26,11.26,0,0,0,2.45-1,17.62,17.62,0,0,0,2.76-1.94,14.67,14.67,0,0,0,3.19-3.52,7.71,7.71,0,0,0,1.13-3.17,5.53,5.53,0,0,0-.36-2.74,8.55,8.55,0,0,0-1.37-2.3"></path></g><rect data-element-id="element-id-93531" stroke-width="2" fill="transparent" class="invisible-element-box grouping-element" x="226" y="165" width="231" height="140" data-element-name="isPrimaryText"></rect><rect data-element-id="element-id-62910" stroke-width="2" fill="transparent" class="invisible-element-box grouping-element" x="94" y="158" width="106" height="154" data-element-name="isIcon"></rect><rect data-element-id="element-id-60449" stroke-width="2" fill="transparent" class="invisible-element-box individual-element" x="94" y="158" width="106" height="154"></rect><rect data-element-id="element-id-60187" stroke-width="2" fill="transparent" class="invisible-element-box individual-element" x="377" y="165" width="79" height="140"></rect><rect data-element-id="element-id-74157" stroke-width="2" fill="transparent" class="invisible-element-box individual-element" x="295" y="165" width="72" height="140"></rect><rect data-element-id="element-id-83803" stroke-width="2" fill="transparent" class="invisible-element-box individual-element" x="226" y="165" width="60" height="140"></rect><rect data-element-id="element-id-25974" stroke-width="2" fill="transparent" class="invisible-element-box individual-element" x="127" y="158" width="74" height="98"></rect><rect data-element-id="element-id-96420" stroke-width="2" fill="transparent" class="invisible-element-box individual-element" x="127" y="174" width="57" height="81"></rect><rect data-element-id="element-id-73028" stroke-width="2" fill="transparent" class="invisible-element-box individual-element" x="94" y="158" width="25" height="154"></rect><rect data-element-id="element-id-73508" stroke-width="2" fill="transparent" class="invisible-element-box individual-element" x="110" y="182" width="8" height="105"></rect></svg>